<svg xmlns="http://www.w3.org/2000/svg" width="20" height="21" viewBox="0 0 20 21" fill="none">
    <path d="M17.1167 5.03131L15.9583 3.63269C15.7333 3.34963 15.3917 3.1748 15 3.1748H5C4.60833 3.1748 4.26667 3.34963 4.03333 3.63269L2.88333 5.03131C2.64167 5.31437 2.5 5.689 2.5 6.08861V16.4951C2.5 17.4108 3.25 18.1601 4.16667 18.1601H15.8333C16.75 18.1601 17.5 17.4108 17.5 16.4951V6.08861C17.5 5.689 17.3583 5.31437 17.1167 5.03131ZM10 15.2463L5.41667 10.6674H8.33333V9.00241H11.6667V10.6674H14.5833L10 15.2463ZM4.26667 4.83984L4.94167 4.00732H14.9417L15.725 4.83984H4.26667Z" fill="white"/>
  </svg>