<svg xmlns="http://www.w3.org/2000/svg" width="20" height="21" viewBox="0 0 20 21" fill="none">
    <path d="M17.8401 10.1783L10.4818 2.82722C10.1734 2.51919 9.74843 2.34436 9.30677 2.34436H3.33177C2.4151 2.34436 1.6651 3.09362 1.6651 4.00939V9.97853C1.6651 10.4198 1.8401 10.8443 2.15677 11.1524L9.5151 18.5035C10.1651 19.1528 11.2234 19.1528 11.8734 18.5035L17.8484 12.5344C18.4984 11.885 18.4984 10.836 17.8401 10.1783ZM5.4151 7.33945C4.72343 7.33945 4.1651 6.78167 4.1651 6.09068C4.1651 5.39969 4.72343 4.84191 5.4151 4.84191C6.10677 4.84191 6.6651 5.39969 6.6651 6.09068C6.6651 6.78167 6.10677 7.33945 5.4151 7.33945Z" fill="white"/>
  </svg>